# xmcd
# Track frame offsets:
# 150
# 24008
# 43917
# 70511
# 97322
# 121891
# 139387
# 160672
# 182930
# 204920
# 243452
# 260748
#
# Disc length: 3579 seconds
# Revision: 0
# Processed by: cddbd v1.5.1PL0 Copyright (c) Steve Scherf et al.
# Submitted via: VisiTrax 2.9.10.228 - For more info visit www.synapsa.com
#
DISCID=a90df90c
DTITLE=The Boogie Men - The Boogie Men
DYEAR=1900
DGENRE=New Orleans Soul
TTITLE0=What's Going On
TTITLE1=Soul with a Capital S
TTITLE2=In and Out of Love
TTITLE3=My Old School
TTITLE4=Don't Let the Sun go Down
TTITLE5=Semtember
TTITLE6=Sledgehammer
TTITLE7=Don't Change Horses
TTITLE8=Give it to me Baby
TTITLE9=A Tribute James Brown
TTITLE10=I've Got News
TTITLE11=Every Breath You Take
EXTD=
EXTT0=
EXTT1=
EXTT2=
EXTT3=
EXTT4=
EXTT5=
EXTT6=
EXTT7=
EXTT8=
EXTT9=
EXTT10=
EXTT11=
PLAYORDER=
